<?xml version="1.0" encoding="UTF-8"?>
<svg class="icon icon-tabler icon-tabler-device-desktop" width="44" height="44" fill="none" stroke="#DFDFDF" stroke-linecap="round" stroke-linejoin="round" stroke-width="1.5" version="1.1" viewBox="0 0 24 24" xmlns="http://www.w3.org/2000/svg">
 <path x="4.0697814e-06" y="4.0697814e-06" width="23.999998" height="23.999996" d="m2.4 4.0698e-6h19.2a2.4 2.4 45 0 1 2.4 2.4v19.2a2.4 2.4 135 0 1-2.4 2.4h-19.2a2.4 2.4 45 0 1-2.4-2.4v-19.2a2.4 2.4 135 0 1 2.4-2.4z" fill="#ffb900" stroke-miterlimit="19.8" stroke-width="0" style="paint-order:fill markers stroke"/>
 <path d="M0 0h24v24H0z" stroke="none"/>
 <g fill="#ffb900" stroke="none" stroke-width=".054546">
  <path d="M4 4h16c.554 0 1 .446 1 1v10c0 .554-.446 1-1 1H4c-.554 0-1-.446-1-1V5c0-.554.446-1 1-1Z"/>
  <path d="m4 3.9727c-0.56864 0-1.0273 0.45871-1.0273 1.0273v10c0 0.56864 0.45871 1.0273 1.0273 1.0273h16c0.56864 0 1.0273-0.45871 1.0273-1.0273v-10c0-0.56864-0.45871-1.0273-1.0273-1.0273zm0 0.054687h16c0.53936 0 0.97266 0.43329 0.97266 0.97266v10c0 0.53936-0.43329 0.97266-0.97266 0.97266h-16c-0.53936 0-0.97266-0.43329-0.97266-0.97266v-10c0-0.53936 0.43329-0.97266 0.97266-0.97266z" fill="#fff"/>
  <g fill="#fff">
   <path d="M4 3.25c-.9565261 0-1.75.7934739-1.75 1.75v10c0 .956526.7934739 1.75 1.75 1.75h16c.956526 0 1.75-.793474 1.75-1.75V5c0-.9565261-.793474-1.75-1.75-1.75Zm0 1.5h16c.151473 0 .25.098527.25.25v10c0 .151473-.09853.25-.25.25H4c-.1514728 0-.25-.098527-.25-.25V5c0-.1514728.0985272-.25.25-.25Z"/>
   <path d="M4 3.2226563c-.9716076 0-1.7773437.8057361-1.7773437 1.7773437v10c0 .971608.8057361 1.777344 1.7773437 1.777344h16c.971608 0 1.777344-.805736 1.777344-1.777344V5c0-.9716076-.805736-1.7773438-1.777344-1.7773437Zm0 .054687h16c.941443 0 1.722656.7812135 1.722656 1.7226562V15c0 .941443-.781213 1.722656-1.722656 1.722656H4c-.9414427 0-1.7226562-.781213-1.7226562-1.722656V5c0-.9414427.7812135-1.7226562 1.7226562-1.7226567Zm0 1.4453124c-.08165 0-.1520185.027018-.2011719.076172-.0491534.0491538-.0761719.1195227-.0761718.2011723v10c0 .08165.027018.152019.076172.201172.049153.04915.1195223.07617.2011719.07617H20c.08165 0 .152018-.02702.201172-.07617.04915-.04915.07617-.119522.07617-.201172V5c0-.08165-.02702-.1520185-.07617-.2011719-.049153-.0491533-.119522-.0761719-.201172-.0761719Zm0 .054687h16c.06982 0 .124131.022569.162109.060547.03798.037978.06055.092286.06055.1621094v9.9999999c0 .06982-.02257.124131-.06055.162109-.03798.03798-.09229.06055-.162109.06055H4c-.069823 0-.1241311-.02257-.1621094-.06055-.0379783-.037977-.0605469-.092285-.0605468-.162108V5c0-.069823.022568-.124131.060547-.1621094C3.875869 4.7999123 3.930177 4.7773438 4 4.7773437Z"/>
  </g>
  <path d="m7 20h10"/>
  <path d="M7 19.972656A.02727273.02727273 0 0 0 6.9726562 20 .02727273.02727273 0 0 0 7 20.027344h10A.02727273.02727273 0 0 0 17.027344 20 .02727273.02727273 0 0 0 17 19.972656Z" fill="#fff"/>
  <g fill="#fff">
   <path d="M7 19.25a.75.75 0 0 0-.75.75.75.75 0 0 0 .75.75h10a.75.75 0 0 0 .75-.75.75.75 0 0 0-.75-.75Z"/>
   <path d="m7 19.223c-0.42895 0-0.77734 0.34839-0.77734 0.77734s0.34839 0.77734 0.77734 0.77734h10c0.42895 0 0.77734-0.34839 0.77734-0.77734s-0.34839-0.77734-0.77734-0.77734zm0 0.05469h10c0.39947 0 0.72266 0.32318 0.72266 0.72266s-0.32318 0.72266-0.72266 0.72266h-10c-0.39947-2e-6 -0.72266-0.32318-0.72266-0.72266 0-0.39947 0.32318-0.72266 0.72266-0.72266z"/>
  </g>
  <path d="m9 16v4"/>
  <path d="M9 15.972656A.02727273.02727273 0 0 0 8.9726563 16v4A.02727273.02727273 0 0 0 9 20.027344.02727273.02727273 0 0 0 9.0273438 20v-4A.02727273.02727273 0 0 0 9 15.972656Z" fill="#fff"/>
  <g fill="#fff">
   <path d="M9 15.25a.75.75 0 0 0-.75.75v4a.75.75 0 0 0 .75.75.75.75 0 0 0 .75-.75v-4a.75.75 0 0 0-.75-.75Z"/>
   <path d="m9 15.223c-0.42895 0-0.77734 0.34839-0.77734 0.77734v4c0 0.42895 0.34839 0.77734 0.77734 0.77734s0.77734-0.34839 0.77734-0.77734v-4c0-0.42895-0.34839-0.77734-0.77734-0.77734zm0 0.05469c0.39947 0 0.72266 0.32318 0.72266 0.72266v4c0 0.39947-0.32318 0.72265-0.72266 0.72265s-0.72266-0.32318-0.72266-0.72266v-4c0-0.39947 0.32318-0.72266 0.72266-0.72266z"/>
  </g>
  <path d="m15 16v4"/>
  <path d="M15 15.972656A.02727273.02727273 0 0 0 14.972656 16v4A.02727273.02727273 0 0 0 15 20.027344.02727273.02727273 0 0 0 15.027344 20v-4A.02727273.02727273 0 0 0 15 15.972656Z" fill="#fff"/>
  <g fill="#fff">
   <path d="M15 15.25a.75.75 0 0 0-.75.75v4a.75.75 0 0 0 .75.75.75.75 0 0 0 .75-.75v-4a.75.75 0 0 0-.75-.75Z"/>
   <path d="m15 15.223c-0.42895 0-0.77734 0.34839-0.77734 0.77734v4c0 0.42895 0.34839 0.77734 0.77734 0.77734s0.77734-0.34839 0.77734-0.77734v-4c0-0.42895-0.34839-0.77734-0.77734-0.77734zm0 0.05469c0.39947 0 0.72266 0.32318 0.72266 0.72266v4c0 0.39947-0.32318 0.72266-0.72266 0.72266s-0.72266-0.32318-0.72266-0.72266v-4c0-0.39947 0.32318-0.72266 0.72266-0.72266z"/>
  </g>
 </g>
 <g stroke-width="2">
  <path d="m7.5791 12.049 14.131-4.1484 4.1484 14.131-14.131 4.1484z" stroke="none"/>
  <path d="m15.306 14.021c-0.039893-0.83805 1.073-1.1648 1.4925-0.43818a0.80049 0.80049 0 0 0 1.2858 0.13838c0.56449-0.62061 1.5827-0.064948 1.3659 0.74589a0.80049 0.80049 0 0 0 0.8109 1.0066c0.83805-0.039893 1.1648 1.073 0.43818 1.4925a0.80049 0.80049 0 0 0-0.13838 1.2858c0.62061 0.56449 0.064948 1.5827-0.74589 1.3659a0.80049 0.80049 0 0 0-1.0066 0.8109c0.039893 0.83805-1.073 1.1648-1.4925 0.43818a0.80049 0.80049 0 0 0-1.2858-0.13838c-0.56449 0.62061-1.5827 0.064948-1.3659-0.74589a0.80049 0.80049 0 0 0-0.8109-1.0066c-0.83805 0.039893-1.1648-1.073-0.43818-1.4925a0.80049 0.80049 0 0 0 0.13838-1.2858c-0.62061-0.56449-0.064948-1.5827 0.74589-1.3659 0.52505 0.14008 1.0321-0.26913 1.0066-0.8109z" fill="#7d868f" stroke="#ffb900" stroke-width="1.4603" paint-order="stroke fill markers"/>
  <path d="m18.394 16.832a1.393 1.393 0 0 1-0.94418 1.729 1.393 1.393 0 0 1-1.729-0.94418 1.393 1.393 0 0 1 0.94418-1.729 1.393 1.393 0 0 1 1.729 0.94418z" fill="#0c59a3" stroke="#fff" stroke-width=".18097"/>
 </g>
</svg>
