<?xml version="1.0" encoding="UTF-8" standalone="no"?>
<svg
   class="icon icon-tabler icon-tabler-device-desktop"
   width="44"
   height="44"
   viewBox="0 0 24 24"
   stroke-width="1.5"
   stroke="#DFDFDF"
   fill="none"
   stroke-linecap="round"
   stroke-linejoin="round"
   version="1.1"
   id="svg12"
   sodipodi:docname="_Icon.svg"
   inkscape:version="1.1.1 (3bf5ae0d25, 2021-09-20)"
   xmlns:inkscape="http://www.inkscape.org/namespaces/inkscape"
   xmlns:sodipodi="http://sodipodi.sourceforge.net/DTD/sodipodi-0.dtd"
   xmlns="http://www.w3.org/2000/svg"
   xmlns:svg="http://www.w3.org/2000/svg">
  <defs
     id="defs16">
    <inkscape:path-effect
       effect="fillet_chamfer"
       id="path-effect992"
       is_visible="true"
       lpeversion="1"
       satellites_param="F,0,0,1,0,5,0,1 @ F,0,0,1,0,5,0,1 @ F,0,0,1,0,5,0,1 @ F,0,0,1,0,5,0,1"
       unit="px"
       method="auto"
       mode="F"
       radius="5"
       chamfer_steps="1"
       flexible="false"
       use_knot_distance="true"
       apply_no_radius="true"
       apply_with_radius="true"
       only_selected="false"
       hide_knots="false" />
  </defs>
  <sodipodi:namedview
     id="namedview14"
     pagecolor="#505050"
     bordercolor="#ffffff"
     borderopacity="1"
     inkscape:pageshadow="0"
     inkscape:pageopacity="0"
     inkscape:pagecheckerboard="1"
     showgrid="false"
     inkscape:zoom="4.9602273"
     inkscape:cx="70.460481"
     inkscape:cy="65.218786"
     inkscape:window-width="2560"
     inkscape:window-height="1369"
     inkscape:window-x="1432"
     inkscape:window-y="207"
     inkscape:window-maximized="1"
     inkscape:current-layer="layer3" />
  <path
     stroke="none"
     d="M0 0h24v24H0z"
     fill="none"
     id="path2" />
  <path
     id="rect855"
     style="fill:#ffb900;stroke:#1ed760;stroke-width:0;paint-order:stroke fill markers;fill-opacity:1"
     d="m 5.000001,9.5e-7 h 13.999998 a 5,5 45 0 1 5,5.00000005 v 13.999998 a 5,5 135 0 1 -5,5 H 5.000001 a 5,5 45 0 1 -5,-5 V 5.000001 a 5,5 135 0 1 5,-5.00000005 z"
     inkscape:path-effect="#path-effect992"
     inkscape:original-d="M 1e-6,9.5e-7 H 23.999999 V 23.999999 H 1e-6 Z" />
  <g
     inkscape:groupmode="layer"
     id="layer1"
     inkscape:label="Background"
     sodipodi:insensitive="true" />
  <g
     inkscape:groupmode="layer"
     id="layer2"
     inkscape:label="Icon"
     style="display:inline"
     sodipodi:insensitive="true">
    <g
       id="g2245"
       style="fill:#ffb900;stroke:#ffffff;stroke-width:0.0545455;stroke-miterlimit:4;stroke-dasharray:none">
      <g
         id="path4840"
         style="stroke-width:0.0545455;stroke-miterlimit:4;stroke-dasharray:none">
        <path
           style="color:#000000;stroke:none;stroke-width:0.0545455;stroke-miterlimit:4;stroke-dasharray:none"
           d="m 4,4 h 16 c 0.554,0 1,0.446 1,1 v 10 c 0,0.554 -0.446,1 -1,1 H 4 C 3.446,16 3,15.554 3,15 V 5 C 3,4.446 3.446,4 4,4 Z"
           id="path5181" />
        <path
           style="color:#000000;fill:#ffffff;stroke:none;stroke-width:0.0545455;stroke-miterlimit:4;stroke-dasharray:none"
           d="M 4,3.9726563 C 3.4313632,3.9726563 2.9726563,4.4313632 2.9726563,5 v 10 c 0,0.568637 0.4587069,1.027344 1.0273437,1.027344 h 16 c 0.568637,0 1.027344,-0.458707 1.027344,-1.027344 V 5 C 21.027344,4.4313632 20.568637,3.9726562 20,3.9726563 Z m 0,0.054687 h 16 c 0.539362,0 0.972656,0.4332942 0.972656,0.9726563 V 15 c 0,0.539362 -0.433294,0.972656 -0.972656,0.972656 H 4 C 3.4606379,15.972656 3.0273437,15.539362 3.0273438,15 V 5 C 3.0273438,4.4606379 3.4606379,4.0273438 4,4.0273433 Z"
           id="path5183" />
      </g>
      <g
         id="path4842"
         style="stroke-width:0.0545455;stroke-miterlimit:4;stroke-dasharray:none">
        <path
           style="color:#000000;fill:#ffffff;stroke:none;stroke-width:0.0545455;stroke-miterlimit:4;stroke-dasharray:none"
           d="M 4,3.25 C 3.0434739,3.25 2.25,4.0434739 2.25,5 v 10 c 0,0.956526 0.7934739,1.75 1.75,1.75 h 16 c 0.956526,0 1.75,-0.793474 1.75,-1.75 V 5 C 21.75,4.0434739 20.956526,3.25 20,3.25 Z m 0,1.5 h 16 c 0.151473,0 0.25,0.098527 0.25,0.25 v 10 c 0,0.151473 -0.09853,0.25 -0.25,0.25 H 4 C 3.8485272,15.25 3.75,15.151473 3.75,15 V 5 C 3.75,4.8485272 3.8485272,4.75 4,4.75 Z"
           id="path5187" />
        <path
           style="color:#000000;fill:#ffffff;stroke:none;stroke-width:0.0545455;stroke-miterlimit:4;stroke-dasharray:none"
           d="M 4,3.2226563 C 3.0283924,3.2226563 2.2226563,4.0283924 2.2226563,5 v 10 c 0,0.971608 0.8057361,1.777344 1.7773437,1.777344 h 16 c 0.971608,0 1.777344,-0.805736 1.777344,-1.777344 V 5 C 21.777344,4.0283924 20.971608,3.2226562 20,3.2226563 Z m 0,0.054687 h 16 c 0.941443,0 1.722656,0.7812135 1.722656,1.7226562 V 15 c 0,0.941443 -0.781213,1.722656 -1.722656,1.722656 H 4 C 3.0585573,16.722656 2.2773438,15.941443 2.2773438,15 V 5 C 2.2773438,4.0585573 3.0585573,3.2773438 4,3.2773433 Z m 0,1.4453124 c -0.08165,0 -0.1520185,0.027018 -0.2011719,0.076172 C 3.7496747,4.8479815 3.7226562,4.9183504 3.7226563,5 v 10 c 0,0.08165 0.027018,0.152019 0.076172,0.201172 0.049153,0.04915 0.1195223,0.07617 0.2011719,0.07617 H 20 c 0.08165,0 0.152018,-0.02702 0.201172,-0.07617 0.04915,-0.04915 0.07617,-0.119522 0.07617,-0.201172 V 5 c 0,-0.08165 -0.02702,-0.1520185 -0.07617,-0.2011719 C 20.152019,4.7496748 20.08165,4.7226562 20,4.7226562 Z m 0,0.054687 h 16 c 0.06982,0 0.124131,0.022569 0.162109,0.060547 0.03798,0.037978 0.06055,0.092286 0.06055,0.1621094 v 9.9999999 c 0,0.06982 -0.02257,0.124131 -0.06055,0.162109 -0.03798,0.03798 -0.09229,0.06055 -0.162109,0.06055 H 4 c -0.069823,0 -0.1241311,-0.02257 -0.1621094,-0.06055 C 3.7999123,15.124131 3.7773437,15.069823 3.7773438,15 V 5 c 0,-0.069823 0.022568,-0.124131 0.060547,-0.1621094 C 3.875869,4.7999123 3.930177,4.7773438 4,4.7773437 Z"
           id="path5189" />
      </g>
      <g
         id="line6"
         style="stroke-width:0.0545455;stroke-miterlimit:4;stroke-dasharray:none">
        <g
           id="path4846"
           style="stroke-width:0.0545455;stroke-miterlimit:4;stroke-dasharray:none">
          <path
             style="color:#000000;stroke:none;stroke-width:0.0545455;stroke-miterlimit:4;stroke-dasharray:none"
             d="M 7,20 H 17"
             id="path5193" />
          <path
             style="color:#000000;fill:#ffffff;stroke:none;stroke-width:0.0545455;stroke-miterlimit:4;stroke-dasharray:none"
             d="M 7,19.972656 A 0.02727273,0.02727273 0 0 0 6.9726562,20 0.02727273,0.02727273 0 0 0 7,20.027344 H 17 A 0.02727273,0.02727273 0 0 0 17.027344,20 0.02727273,0.02727273 0 0 0 17,19.972656 Z"
             id="path5195" />
        </g>
        <g
           id="path4848"
           style="stroke-width:0.0545455;stroke-miterlimit:4;stroke-dasharray:none">
          <path
             style="color:#000000;fill:#ffffff;stroke:none;stroke-width:0.0545455;stroke-miterlimit:4;stroke-dasharray:none"
             d="M 7,19.25 A 0.75,0.75 0 0 0 6.25,20 0.75,0.75 0 0 0 7,20.75 H 17 A 0.75,0.75 0 0 0 17.75,20 0.75,0.75 0 0 0 17,19.25 Z"
             id="path5199" />
          <path
             style="color:#000000;fill:#ffffff;stroke:none;stroke-width:0.0545455;stroke-miterlimit:4;stroke-dasharray:none"
             d="m 7,19.222656 c -0.4289524,0 -0.7773438,0.348392 -0.7773438,0.777344 0,0.428952 0.3483914,0.777344 0.7773438,0.777344 h 10 c 0.428952,0 0.777344,-0.348392 0.777344,-0.777344 0,-0.428952 -0.348392,-0.777344 -0.777344,-0.777344 z m 0,0.05469 h 10 c 0.399474,0 0.722656,0.323182 0.722656,0.722656 0,0.399474 -0.323182,0.722656 -0.722656,0.722656 H 7 C 6.6005261,20.722656 6.2773438,20.399474 6.2773437,20 6.2773437,19.600526 6.6005261,19.277344 7,19.277344 Z"
             id="path5201" />
        </g>
      </g>
      <g
         id="line8"
         style="stroke-width:0.0545455;stroke-miterlimit:4;stroke-dasharray:none">
        <g
           id="path4852"
           style="stroke-width:0.0545455;stroke-miterlimit:4;stroke-dasharray:none">
          <path
             style="color:#000000;stroke:none;stroke-width:0.0545455;stroke-miterlimit:4;stroke-dasharray:none"
             d="m 9,16 v 4"
             id="path5205" />
          <path
             style="color:#000000;fill:#ffffff;stroke:none;stroke-width:0.0545455;stroke-miterlimit:4;stroke-dasharray:none"
             d="M 9,15.972656 A 0.02727273,0.02727273 0 0 0 8.9726563,16 v 4 A 0.02727273,0.02727273 0 0 0 9,20.027344 0.02727273,0.02727273 0 0 0 9.0273438,20 V 16 A 0.02727273,0.02727273 0 0 0 9,15.972656 Z"
             id="path5207" />
        </g>
        <g
           id="path4854"
           style="stroke-width:0.0545455;stroke-miterlimit:4;stroke-dasharray:none">
          <path
             style="color:#000000;fill:#ffffff;stroke:none;stroke-width:0.0545455;stroke-miterlimit:4;stroke-dasharray:none"
             d="M 9,15.25 A 0.75,0.75 0 0 0 8.25,16 v 4 A 0.75,0.75 0 0 0 9,20.75 0.75,0.75 0 0 0 9.75,20 V 16 A 0.75,0.75 0 0 0 9,15.25 Z"
             id="path5211" />
          <path
             style="color:#000000;fill:#ffffff;stroke:none;stroke-width:0.0545455;stroke-miterlimit:4;stroke-dasharray:none"
             d="m 9,15.222656 c -0.4289524,0 -0.7773437,0.348392 -0.7773437,0.777344 v 4 c 0,0.428952 0.3483913,0.777344 0.7773437,0.777344 0.4289524,0 0.7773438,-0.348392 0.7773438,-0.777344 V 16 C 9.7773438,15.571048 9.4289524,15.222656 9,15.222656 Z m 0,0.05469 c 0.3994739,0 0.7226563,0.323182 0.7226563,0.722656 v 4 C 9.7226563,20.399474 9.3994739,20.722656 9,20.722656 8.6005261,20.722656 8.2773438,20.399474 8.2773438,20 v -4 c 0,-0.399474 0.3231823,-0.722656 0.7226562,-0.722656 z"
             id="path5213" />
        </g>
      </g>
      <g
         id="line10"
         style="stroke-width:0.0545455;stroke-miterlimit:4;stroke-dasharray:none">
        <g
           id="path4858"
           style="stroke-width:0.0545455;stroke-miterlimit:4;stroke-dasharray:none">
          <path
             style="color:#000000;stroke:none;stroke-width:0.0545455;stroke-miterlimit:4;stroke-dasharray:none"
             d="m 15,16 v 4"
             id="path5217" />
          <path
             style="color:#000000;fill:#ffffff;stroke:none;stroke-width:0.0545455;stroke-miterlimit:4;stroke-dasharray:none"
             d="M 15,15.972656 A 0.02727273,0.02727273 0 0 0 14.972656,16 v 4 A 0.02727273,0.02727273 0 0 0 15,20.027344 0.02727273,0.02727273 0 0 0 15.027344,20 V 16 A 0.02727273,0.02727273 0 0 0 15,15.972656 Z"
             id="path5219" />
        </g>
        <g
           id="path4860"
           style="stroke-width:0.0545455;stroke-miterlimit:4;stroke-dasharray:none">
          <path
             style="color:#000000;fill:#ffffff;stroke:none;stroke-width:0.0545455;stroke-miterlimit:4;stroke-dasharray:none"
             d="M 15,15.25 A 0.75,0.75 0 0 0 14.25,16 v 4 A 0.75,0.75 0 0 0 15,20.75 0.75,0.75 0 0 0 15.75,20 V 16 A 0.75,0.75 0 0 0 15,15.25 Z"
             id="path5223" />
          <path
             style="color:#000000;fill:#ffffff;stroke:none;stroke-width:0.0545455;stroke-miterlimit:4;stroke-dasharray:none"
             d="m 15,15.222656 c -0.428952,0 -0.777344,0.348392 -0.777344,0.777344 v 4 c 0,0.428952 0.348392,0.777344 0.777344,0.777344 0.428952,0 0.777344,-0.348392 0.777344,-0.777344 v -4 c 0,-0.428952 -0.348392,-0.777344 -0.777344,-0.777344 z m 0,0.05469 c 0.399474,0 0.722656,0.323182 0.722656,0.722656 v 4 c 0,0.399474 -0.323182,0.722656 -0.722656,0.722656 -0.399474,0 -0.722656,-0.323182 -0.722656,-0.722656 v -4 c 0,-0.399474 0.323182,-0.722656 0.722656,-0.722656 z"
             id="path5225" />
        </g>
      </g>
    </g>
  </g>
  <g
     inkscape:groupmode="layer"
     id="layer3"
     inkscape:label="Cog"
     style="display:inline">
    <g
       style="display:inline;fill:none;fill-opacity:1;stroke:currentColor;stroke-width:2;stroke-linecap:round;stroke-linejoin:round"
       id="g1378"
       transform="matrix(0.58878815,-0.17285283,0.17285283,0.58878815,7.5791462,12.048763)">
      <path
         stroke="none"
         d="M 0,0 H 24 V 24 H 0 Z"
         fill="none"
         id="path1363"
         style="fill:none;fill-opacity:1" />
      <g
         id="g23971"
         transform="matrix(0.8924097,0,0,0.8924097,-1.0408577,2.9254078)">
        <g
           id="path1365"
           transform="matrix(0.8479066,0,0,0.8479066,4.9362318,0.49178813)"
           style="stroke-width:3.145;stroke-miterlimit:4;stroke-dasharray:none">
          <path
             style="color:#000000;fill:#7d868f;stroke:#ffb900;stroke-width:3.145;stroke-linecap:round;stroke-linejoin:round;stroke-miterlimit:4;stroke-dasharray:none;stroke-opacity:1;paint-order:stroke fill markers"
             d="m 10.325,4.317 c 0.426,-1.756 2.924,-1.756 3.35,0 a 1.724,1.724 0 0 0 2.573,1.066 c 1.543,-0.94 3.31,0.826 2.37,2.37 a 1.724,1.724 0 0 0 1.065,2.572 c 1.756,0.426 1.756,2.924 0,3.35 a 1.724,1.724 0 0 0 -1.066,2.573 c 0.94,1.543 -0.826,3.31 -2.37,2.37 a 1.724,1.724 0 0 0 -2.572,1.065 c -0.426,1.756 -2.924,1.756 -3.35,0 A 1.724,1.724 0 0 0 7.752,18.617 c -1.543,0.94 -3.31,-0.826 -2.37,-2.37 A 1.724,1.724 0 0 0 4.317,13.675 c -1.756,-0.426 -1.756,-2.924 0,-3.35 A 1.724,1.724 0 0 0 5.383,7.752 c -0.94,-1.543 0.826,-3.31 2.37,-2.37 1,0.608 2.296,0.07 2.572,-1.065 z"
             id="path2175" />
        </g>
        <path
           id="circle1367"
           d="m 17.654829,10.666666 a 2.5437197,2.5437197 0 0 1 -2.543718,2.543718 2.5437197,2.5437197 0 0 1 -2.543721,-2.543718 2.5437197,2.5437197 0 0 1 2.543721,-2.5437207 2.5437197,2.5437197 0 0 1 2.543718,2.5437207 z"
           style="fill:#0c59a3;fill-opacity:1;stroke:#ffffff;stroke-width:0.330467;stroke-miterlimit:4;stroke-dasharray:none;stroke-opacity:1" />
      </g>
    </g>
  </g>
</svg>
