<svg xmlns="http://www.w3.org/2000/svg" width="44" height="44" fill="none" stroke="#DFDFDF" stroke-linecap="round" stroke-linejoin="round" stroke-width="1.5" class="icon icon-tabler icon-tabler-device-desktop" viewBox="0 0 24 24">
  <path stroke="none" d="M0 0h24v24H0z"/>
  <path fill="#ffb900" stroke="none" d="M5.000001 9.5e-7h13.999998a5 5 45 0 1 5 5.00000005v13.999998a5 5 135 0 1-5 5H5.000001a5 5 45 0 1-5-5V5.000001a5 5 135 0 1 5-5.00000005z" paint-order="stroke fill markers"/>
  <g fill="#ffb900" stroke="none" stroke-width=".0545455" color="#000">
    <path d="M4 4h16c.554 0 1 .446 1 1v10c0 .554-.446 1-1 1H4c-.554 0-1-.446-1-1V5c0-.554.446-1 1-1Z"/>
    <path fill="#fff" d="M4 3.9726563c-.5686368 0-1.0273437.4587069-1.0273437 1.0273437v10c0 .568637.4587069 1.027344 1.0273437 1.027344h16c.568637 0 1.027344-.458707 1.027344-1.027344V5c0-.5686368-.458707-1.0273438-1.027344-1.0273437Zm0 .054687h16c.539362 0 .972656.4332942.972656.9726563V15c0 .539362-.433294.972656-.972656.972656H4c-.5393621 0-.9726563-.433294-.9726562-.972656V5c0-.5393621.4332941-.9726562.9726562-.9726567Z"/>
    <g fill="#fff">
      <path d="M4 3.25c-.9565261 0-1.75.7934739-1.75 1.75v10c0 .956526.7934739 1.75 1.75 1.75h16c.956526 0 1.75-.793474 1.75-1.75V5c0-.9565261-.793474-1.75-1.75-1.75Zm0 1.5h16c.151473 0 .25.098527.25.25v10c0 .151473-.09853.25-.25.25H4c-.1514728 0-.25-.098527-.25-.25V5c0-.1514728.0985272-.25.25-.25Z"/>
      <path d="M4 3.2226563c-.9716076 0-1.7773437.8057361-1.7773437 1.7773437v10c0 .971608.8057361 1.777344 1.7773437 1.777344h16c.971608 0 1.777344-.805736 1.777344-1.777344V5c0-.9716076-.805736-1.7773438-1.777344-1.7773437Zm0 .054687h16c.941443 0 1.722656.7812135 1.722656 1.7226562V15c0 .941443-.781213 1.722656-1.722656 1.722656H4c-.9414427 0-1.7226562-.781213-1.7226562-1.722656V5c0-.9414427.7812135-1.7226562 1.7226562-1.7226567Zm0 1.4453124c-.08165 0-.1520185.027018-.2011719.076172-.0491534.0491538-.0761719.1195227-.0761718.2011723v10c0 .08165.027018.152019.076172.201172.049153.04915.1195223.07617.2011719.07617H20c.08165 0 .152018-.02702.201172-.07617.04915-.04915.07617-.119522.07617-.201172V5c0-.08165-.02702-.1520185-.07617-.2011719-.049153-.0491533-.119522-.0761719-.201172-.0761719Zm0 .054687h16c.06982 0 .124131.022569.162109.060547.03798.037978.06055.092286.06055.1621094v9.9999999c0 .06982-.02257.124131-.06055.162109-.03798.03798-.09229.06055-.162109.06055H4c-.069823 0-.1241311-.02257-.1621094-.06055-.0379783-.037977-.0605469-.092285-.0605468-.162108V5c0-.069823.022568-.124131.060547-.1621094C3.875869 4.7999123 3.930177 4.7773438 4 4.7773437Z"/>
    </g>
    <path d="M7 20h10"/>
    <path fill="#fff" d="M7 19.972656A.02727273.02727273 0 0 0 6.9726562 20 .02727273.02727273 0 0 0 7 20.027344h10A.02727273.02727273 0 0 0 17.027344 20 .02727273.02727273 0 0 0 17 19.972656Z"/>
    <g fill="#fff">
      <path d="M7 19.25a.75.75 0 0 0-.75.75.75.75 0 0 0 .75.75h10a.75.75 0 0 0 .75-.75.75.75 0 0 0-.75-.75Z"/>
      <path d="M7 19.222656c-.4289524 0-.7773438.348392-.7773438.777344 0 .428952.3483914.777344.7773438.777344h10c.428952 0 .777344-.348392.777344-.777344 0-.428952-.348392-.777344-.777344-.777344zm0 .05469h10c.399474 0 .722656.323182.722656.722656 0 .399474-.323182.722656-.722656.722656H7c-.3994739-.000002-.7226562-.323184-.7226563-.722658 0-.399474.3231824-.722656.7226563-.722656Z"/>
    </g>
    <path d="M9 16v4"/>
    <path fill="#fff" d="M9 15.972656A.02727273.02727273 0 0 0 8.9726563 16v4A.02727273.02727273 0 0 0 9 20.027344.02727273.02727273 0 0 0 9.0273438 20v-4A.02727273.02727273 0 0 0 9 15.972656Z"/>
    <g fill="#fff">
      <path d="M9 15.25a.75.75 0 0 0-.75.75v4a.75.75 0 0 0 .75.75.75.75 0 0 0 .75-.75v-4a.75.75 0 0 0-.75-.75Z"/>
      <path d="M9 15.222656c-.4289524 0-.7773437.348392-.7773437.777344v4c0 .428952.3483913.777344.7773437.777344.4289524 0 .7773438-.348392.7773438-.777344v-4c0-.428952-.3483914-.777344-.7773438-.777344Zm0 .05469c.3994739 0 .7226563.323182.7226563.722656v4c0 .399472-.3231824.722654-.7226563.722654-.3994739 0-.7226562-.323182-.7226562-.722656v-4c0-.399474.3231823-.722656.7226562-.722656z"/>
    </g>
    <path d="M15 16v4"/>
    <path fill="#fff" d="M15 15.972656A.02727273.02727273 0 0 0 14.972656 16v4A.02727273.02727273 0 0 0 15 20.027344.02727273.02727273 0 0 0 15.027344 20v-4A.02727273.02727273 0 0 0 15 15.972656Z"/>
    <g fill="#fff">
      <path d="M15 15.25a.75.75 0 0 0-.75.75v4a.75.75 0 0 0 .75.75.75.75 0 0 0 .75-.75v-4a.75.75 0 0 0-.75-.75Z"/>
      <path d="M15 15.222656c-.428952 0-.777344.348392-.777344.777344v4c0 .428952.348392.777344.777344.777344.428952 0 .777344-.348392.777344-.777344v-4c0-.428952-.348392-.777344-.777344-.777344zm0 .05469c.399474 0 .722656.323182.722656.722656v4c0 .399474-.323182.722656-.722656.722656-.399474 0-.722656-.323182-.722656-.722656v-4c0-.399474.323182-.722656.722656-.722656z"/>
    </g>
  </g>
  <g stroke="currentColor" stroke-width="2">
    <path stroke="none" d="m7.5791462 12.048763 14.13096-4.1484 4.1484 14.13096-14.13096 4.1484Z"/>
    <path fill="#7d868f" stroke="#ffb900" stroke-width="1.4602864" d="M15.30618008 14.02088765c-.03989328-.83805392 1.07301568-1.16479232 1.492492-.43818a.80049445.80049445 0 0 0 1.28575576.13837592c.56448536-.6206132 1.582712-.06494848 1.3658784.7458864a.80049445.80049445 0 0 0 .8108964 1.00657544c.83805392-.03989328 1.16479232 1.07301568.43818 1.492492a.80049445.80049445 0 0 0-.13837592 1.28575576c.6206132.56448536.06494848 1.582712-.7458864 1.3658784a.80049445.80049445 0 0 0-1.00657544.8108964c.03989328.83805392-1.07301568 1.16479232-1.492492.43818a.80049445.80049445 0 0 0-1.28575576-.13837592c-.56448536.6206132-1.582712.06494848-1.3658784-.7458864a.80049445.80049445 0 0 0-.8108964-1.00657544c-.83805392.03989328-1.16479232-1.07301568-.43818-1.492492a.80049445.80049445 0 0 0 .13837592-1.28575576c-.6206132-.56448536-.06494848-1.582712.7458864-1.3658784.5250464.14007616 1.03206992-.2691304 1.00657544-.8108964z" color="#000" paint-order="stroke fill markers"/>
    <path fill="#0c59a3" stroke="#fff" stroke-width=".18097033854" d="M18.39395979 16.83238271a1.39298174 1.39298174 0 0 1-.94417725 1.72896513 1.39298174 1.39298174 0 0 1-1.7289667-.94417679 1.39298174 1.39298174 0 0 1 .9441784-1.728967 1.39298174 1.39298174 0 0 1 1.72896555.94417866z"/>
  </g>
</svg>
